<?xml version="1.0" encoding="UTF-8"?>
<svg id="katman_1" xmlns="http://www.w3.org/2000/svg" version="1.1" viewBox="0 0 1535 360">
  <!-- Generator: Adobe Illustrator 30.0.0, SVG Export Plug-In . SVG Version: 2.1.1 Build 123)  -->
  <defs>
    <style>
      .st0 {
        fill: #ffd53e;
      }

      .st1 {
        fill: #edf0ff;
      }
    </style>
  </defs>
  <path class="st1" d="M413.5,8.5v-.7c6.8,0,14.6,2.1,23.6,6.3,8.9,4.2,13.4,11.3,13.4,21.2-16.6,7-34.3,29.9-53,68.7-18.7,38.8-30.6,79.5-35.8,122.3-.9,7.5-1.4,14.7-1.4,21.6,0,31.8,9.9,55.7,29.8,71.7l-2.3,4.6c-1.6,3.2-4.2,6.7-7.6,10.6-3.5,3.9-8,7.4-13.6,10.4-5.6,3-12.4,4.6-20.3,4.6-24.9,0-37.8-16.7-38.8-50.2-.1-3.3-.2-6.5-.2-9.8,0-30.6,4.1-64,12.5-100.2,8.3-36.2,15.7-63.6,22.3-82.3l-22.1,40.9c-14.7,27.2-28.4,61.4-40.9,102.4-6.5,17.1-16.3,26.2-29.1,27.5-.7.1-1.4.2-2.1.2-11.7,0-19.1-9-22.3-27-1.1-13.2-2.5-28.6-4.5-46.2-1.9-17.6-4.1-34.6-6.6-51.1-15.3,48.6-35,93.4-58.9,134.4-24,41-50.7,61.5-80.1,61.5s-43.5-9.8-49.1-29.3c-1.4-4.7-2.1-9.2-2.1-13.7,0-14.1,7-27.2,21-39.3,6,12.2,14.1,18.2,24.6,18.2s24.5-7.8,45-23.3c20.5-15.5,41.1-47.4,61.8-95.4,14.1-32.7,21.2-67.8,21.2-105.1s-1.5-35.1-4.6-53.5c8.5,0,18.2,1.2,29,3.5,10.8,2.3,18.7,9.4,23.8,21.2,7.6,22.3,12.2,49.4,13.9,81.2,1.4,26.1,2.1,51.4,2.1,75.9s0,10.6-.2,15.8v6.7c16.4-44.8,38.9-90,67.7-135.7,28.8-45.7,56.7-68.6,83.8-68.6Z"/>
  <path class="st1" d="M484.5,119.3c9.9,0,18.9,2.8,26.8,8.5,7.9,5.7,13.4,15.6,16.3,29.9,5.3-11.2,9.7-20.5,13.3-27.7l5.3-10.7c7.8,0,15.4,2.3,22.8,6.8,7.4,4.5,12.1,10.9,14.2,19.2-6.4,14.4-13.2,30.6-20.3,48.7-7.1,18.1-12.2,34-15.5,47.8-1.1,4.6-1.6,8.4-1.6,11.4,0,6.3,2.2,9.5,6.5,9.5,6.4,0,15.1-7.6,26-22.7,10.9-15.1,21.2-32.1,30.8-50.8h17.9l-9.1,18.1c-6.1,12-14.1,25.8-24.1,41.2s-21.1,29.2-33.4,41.2c-12.3,12-24.6,18.1-36.8,18.1-20.7,0-31-10.1-31-30.2s0-2.6.2-4c-17.9,22.8-37.1,34.2-57.5,34.2s-42.9-15.7-43.5-47v-3.5c0-30.3,8.7-60.8,26.1-91.6,17.4-30.8,39.6-46.2,66.6-46.2ZM496.8,161.7c-10.1,1.3-20.8,11.1-32.3,29.5-9.7,17.7-14.8,33.8-15.3,48.6v2.5c0,13.1,4.7,19.6,14,19.6s12.1-4.1,18.7-12.3c6.6-8.2,12.4-17.7,17.4-28.5,5-10.8,8.2-20.8,9.7-29.9.5-4.1.7-7.7.7-10.9,0-12.5-3.5-18.8-10.5-18.8s-1.6,0-2.5.2Z"/>
  <path class="st1" d="M705.7,39.7c10.6,0,19.5,3.5,26.5,10.5,5.8,5.7,8.8,12.5,8.8,20.3s-.1,3.3-.4,4.9c-20,5.5-36.6,15.9-49.7,31.1-13.2,15.3-23.1,31-29.7,47.2-6.7,16.2-10.3,28.4-11,36.7,16.6-31.9,35.6-52.9,57-63,11.2-5.1,20.8-7.7,28.6-7.7s10,1.2,13.9,3.7c8.3,5.5,12.5,12.7,12.5,21.6s-.3,4.5-1,10.3c-.6,5.8-7.2,10.9-19.7,15.3-1.6-4.6-5.6-7.4-11.8-8.6-1.3-.2-2.6-.4-4-.4-5,0-10.5,1.6-16.5,4.7-16,10.3-29.7,26.1-41,47.4,4.9,17,12.5,30.2,22.6,39.6,7.1,6.8,16.1,10.2,27,10.2s9-.6,14-1.8c5.6,6.5,8.4,13.7,8.4,21.4s-1.5,10.2-4.6,18.6c-3,8.4-12.7,12.6-29.1,12.6s-25.5-6.4-34.5-19.1c-9-12.7-15.6-27.1-19.6-43.1-3.2,11.2-4.7,22.6-4.7,34.2s.2,9.1.7,13.7c-.2.1-.4.2-.5.4-2.3,1.4-5.3,2.9-8.8,4.4-3.5,1.5-7.7,2.3-12.6,2.3-14.7,0-23.2-12.8-25.3-38.4-.4-5.1-.5-10.5-.5-16,0-21.6,3.5-47.5,10.4-77.6,7-30.1,17.9-58.6,33-85.6,15-26.9,32.4-43.1,52.2-48.5,3.6-.9,6.8-1.4,9.6-1.4Z"/>
  <path class="st1" d="M799.4,119.3c7.8,0,16,2.2,24.6,6.5,8.6,4.3,13.8,10.6,15.7,18.9,15.1-17,30.9-25.4,47.4-25.4s25.4,5.7,29.6,17c1.8,4.7,2.6,9.5,2.6,14.4s-2.3,15.3-7,25.3c-4.7,9.9-14.4,17.8-29.3,23.5-4,1.2-7.6,1.8-10.9,1.8-4.8,0-8.8-1.3-12.1-4-5.3-4.4-7.9-10.1-7.9-17v-5.8c0-3.6,3.2-7.8,9.5-12.6-11.5.4-22,7.9-31.7,22.7-9.7,14.8-17,32.5-21.9,53.1-2.9,12.4-4.4,24.3-4.4,35.6s.6,14.7,1.9,21.7c-8.2,8.2-17.8,12.3-28.8,12.3-20.7,0-31-10.1-31-30.2s0-2.6.2-4c1.1-26.1,6.8-51.9,17.4-77.4,10.5-25.5,20.9-47.8,31.2-66.7,1.8-3.3,3.4-6.4,4.9-9.5Z"/>
  <path class="st1" d="M946.1,307.1c-28.4,0-42.9-15.7-43.5-47v-3.7c0-30.2,8.6-60,25.7-89.6,17.1-29.6,39.5-45.4,67.1-47.5,11.7,0,21.8,3.8,30.3,11.4,8.5,7.6,13.3,21.2,14.2,40.9,0,32.3-9.6,62.9-28.7,92-19.1,29.1-40.8,43.6-65.2,43.6ZM1014.5,191.4c.6-4.8.9-9,.9-12.6,0-7.6-1.4-12.5-4.2-14.6-1.5-1.1-3.2-1.6-5.1-1.6-3.4,0-7.9,2.2-13.5,6.6-5.6,4.4-11.3,11.8-17,22.2-9.4,17.9-14.6,34.1-15.6,48.8-.1,1.9-.2,3.6-.2,5.3,0,11,3.4,16.5,10.2,16.5s11.8-4.1,18.3-12.2c6.5-8.1,12.2-17.6,17-28.5,4.8-10.9,7.9-20.8,9.2-29.8Z"/>
  <path class="st0" d="M1155.6,39.8c10.5,0,19.2,3.5,26.1,10.3,6,6,8.9,13.1,8.9,21.4s0,2.6-.2,3.9c-38.6,13.4-65.5,39.2-80.8,77.3,17.8-22.3,36.9-33.5,57.5-33.5s42.8,15.7,43.5,47v3c0,30.3-8.7,60.8-26.2,91.6-17.5,30.8-39.7,46.2-66.6,46.2s-15.8-1.9-22.6-5.6c-6,3.7-12.4,5.6-19.3,5.6-14.7,0-23.1-12.8-25.1-38.4-.4-5.3-.5-10.6-.5-16.1,0-21.6,3.5-47.5,10.4-77.5,7-30,17.9-58.5,33-85.5,15-26.9,32.4-43.1,52.2-48.5.5,0,.9,0,1.4-.2,2.5-.7,5.2-1.1,8.2-1.1ZM1141,161.7c-5.8,0-12.1,4.1-18.7,12.3-6.6,8.2-12.4,17.7-17.4,28.5-5,10.8-8.2,20.8-9.7,29.9-.5,4-.7,7.6-.7,10.9,0,12.5,3.6,18.8,10.7,18.8s3.7-.4,9.2-1.1c5.6-.8,14-10.3,25.3-28.5,9.7-18,14.8-34.3,15.4-48.8v-2.3c0-13.1-4.7-19.6-14.2-19.6Z"/>
  <path class="st0" d="M1307.4,119.3c10.6,0,20.6,4.2,30,12.6,8.4,7.7,12.6,19.1,12.6,34.2s0,3.5-.2,5.3c-2.3,20.7-10.5,39.1-24.6,55.2-14,16.1-29.8,24.4-47.4,25,.7,3.6,2.5,6.9,5.3,9.9,2.9,3,6.6,4.7,11.1,5.2,1.5.2,3,.4,4.6.4,23.3,0,48.9-26,77-77.9h17.9c-15.3,36.7-34.3,65.6-56.9,86.5-22.6,21-43.2,31.5-61.8,31.5-34,0-52.8-15.7-56.3-47-.6-5.5-.9-10.9-.9-16.3,0-26,7.8-53.2,23.5-81.7,15.7-28.5,37.6-42.8,65.9-42.8ZM1317.8,161c-.5-.1-1-.2-1.6-.2-3.7,0-8.7,2.7-14.8,8.2-6.1,5.5-11.7,13.8-16.6,24.9-2,5.6-3,10.2-3,13.9s.9,6.4,2.8,8.2c1.2,1.1,2.5,1.6,4,1.6,3.9,0,9-3.1,15.4-9.3,4.2-4.2,7.9-9.9,11.1-17,3.2-7.1,5.2-13.7,5.9-19.6.1-1.3.2-2.5.2-3.5,0-4-1.2-6.4-3.5-7.2Z"/>
  <path class="st0" d="M1453.3,41.9c.7-.1,1.4-.2,2.1-.2,5,0,10.5,2.1,16.5,6.3,9.8,6.5,15.5,15.4,17.2,26.7-8.3,3-16.5,10.8-24.7,23.3,1.4,0,2.6-.1,3.7-.4,1.2-.2,2.5-.4,3.9-.4,1.6-.1,3.2-.2,4.6-.2,5.8,0,9.9,1.3,12.3,4,1.9,2.2,2.8,4.7,2.8,7.5s-.5,3.6-1.4,6.7c-.9,3-3.6,6-8.1,8.8-2.6-2.8-5.9-4.3-10-4.4h-2.6c-3.7,0-8.6.4-14.6,1.1-1.4.2-2.8.4-4.2.5-9.8,19.2-18.3,39.5-25.5,60.9-7.2,21.5-11.9,39.8-14.1,55.2-.7,4.6-1.1,8.5-1.1,11.8,0,7.7,1.9,11.9,5.6,12.6,7.2-1.2,16.2-9,26.7-23.5,10.6-14.5,20.7-30.9,30.3-49.1h17.7c-11,24.7-25.2,50.5-42.5,77.4-17.4,27-37.9,40.4-61.6,40.4s-21.9-9.5-23.2-28.6c-.2-3.5-.4-7.1-.4-10.9,0-16.8,2.9-37.6,8.6-62.2,5.7-24.6,13.4-49.9,23.2-75.9-32.2-1.9-53.4-11.2-63.7-28.1-1.5-3.6-2.3-7.2-2.3-10.7s1.1-7.6,3.4-12.5c2.3-5,6.8-8.6,13.4-11,1.9-.6,3.8-.9,5.8-.9,5.1,0,10.7,2.1,16.7,6.3-.4,1.6-.5,3.2-.5,4.6,0,13.1,12.5,21.8,37.5,26.1,8.5-19.6,16.1-34.5,22.6-44.5,7-11.3,15.7-17,26-17Z"/>
</svg>