<svg width="304" height="276" viewBox="0 0 304 276" fill="none" xmlns="http://www.w3.org/2000/svg">
<g clip-path="url(#clip0)">
<path d="M36.4724 86.8777L60.6415 105.064C60.8 105.18 60.982 105.258 61.1735 105.292C61.3649 105.326 61.5607 105.314 61.7458 105.259L89.7266 95.5034C89.9335 95.4397 90.1544 95.4351 90.3654 95.4902C90.5765 95.5453 90.7698 95.658 90.9243 95.8161C91.0789 95.9743 91.189 96.1719 91.2426 96.3876C91.2963 96.6033 91.2915 96.829 91.2288 97.0403L82.1062 125.878C82.0581 126.064 82.0504 126.259 82.0836 126.45C82.1168 126.641 82.1902 126.823 82.2986 126.983L100.649 151.416C100.784 151.592 100.868 151.803 100.891 152.024C100.915 152.244 100.877 152.466 100.783 152.665C100.688 152.863 100.541 153.029 100.357 153.143C100.173 153.258 99.9606 153.318 99.7435 153.314L69.9431 152.953C69.7482 152.95 69.5563 152.996 69.3841 153.086C69.212 153.177 69.0648 153.309 68.9555 153.472L52.142 178.339C52.0202 178.521 51.8502 178.663 51.6516 178.749C51.453 178.835 51.2338 178.862 51.019 178.826C50.8043 178.791 50.6028 178.694 50.4375 178.548C50.2722 178.402 50.15 178.211 50.0846 177.999L40.7738 148.943C40.7136 148.757 40.6109 148.588 40.4743 148.45C40.3377 148.312 40.1712 148.209 39.9888 148.149L11.3857 139.145C11.1769 139.073 10.9905 138.945 10.847 138.773C10.7035 138.602 10.6085 138.394 10.5723 138.172C10.5361 137.951 10.5602 137.724 10.642 137.518C10.7237 137.312 10.86 137.133 11.0357 137.002L35.0481 119.294C35.1995 119.173 35.3211 119.018 35.4036 118.84C35.4861 118.662 35.5273 118.466 35.524 118.268L34.6618 87.8296C34.6602 87.6136 34.7166 87.4023 34.8248 87.2186C34.9331 87.0349 35.089 86.8858 35.2758 86.7877C35.4625 86.6895 35.6728 86.646 35.8838 86.6619C36.0948 86.6777 36.2984 86.7524 36.4724 86.8777V86.8777Z" fill="white"/>
<path d="M253.119 42.5645L265.46 44.6526C265.54 44.6652 265.622 44.6592 265.699 44.635C265.776 44.6108 265.847 44.5691 265.905 44.5131L274.412 35.548C274.476 35.4848 274.557 35.4408 274.645 35.4207C274.734 35.4006 274.826 35.4052 274.913 35.4341C275 35.4629 275.078 35.5148 275.138 35.5842C275.198 35.6536 275.239 35.7379 275.255 35.828L277.295 48.2298C277.312 48.3078 277.346 48.3815 277.394 48.4456C277.442 48.5097 277.503 48.5628 277.573 48.6012L288.937 54.1123C289.02 54.1515 289.09 54.2132 289.14 54.2902C289.19 54.3672 289.218 54.4565 289.221 54.5477C289.223 54.639 289.199 54.7286 289.153 54.8063C289.107 54.8839 289.039 54.9465 288.958 54.9869L277.881 60.5631C277.808 60.5993 277.746 60.6529 277.699 60.7193C277.653 60.7858 277.623 60.8629 277.614 60.9441L276.067 73.3525C276.056 73.4429 276.02 73.5279 275.963 73.5978C275.906 73.6677 275.83 73.7197 275.744 73.7477C275.658 73.7757 275.565 73.7787 275.477 73.7563C275.388 73.7339 275.307 73.687 275.243 73.621L266.352 64.6702C266.295 64.613 266.225 64.5703 266.149 64.5454C266.073 64.5206 265.992 64.5144 265.913 64.5273L253.656 66.6809C253.566 66.6945 253.473 66.6827 253.388 66.6468C253.303 66.611 253.228 66.5524 253.174 66.4775C253.119 66.4026 253.085 66.3144 253.077 66.2225C253.068 66.1305 253.085 66.0385 253.125 65.9564L258.674 54.8136C258.708 54.7398 258.723 54.6591 258.72 54.5776C258.718 54.4961 258.696 54.416 258.658 54.3435L252.629 43.2631C252.587 43.1836 252.569 43.0947 252.574 43.0061C252.58 42.9175 252.609 42.8326 252.66 42.7605C252.71 42.6885 252.78 42.6321 252.861 42.5975C252.942 42.563 253.031 42.5516 253.119 42.5645V42.5645Z" fill="white"/>
<path d="M245.483 108.192C251.245 123.509 250.655 137.221 243.516 149.387C236.961 160.801 226.152 168.727 211.089 173.165C204.304 175.147 196.222 177.128 187.058 179.11L174.905 181.567L162.771 183.984H162.653L125.86 191.415L87.4541 40.0289L137.679 28.2787C148.626 26.0064 159.718 24.51 170.873 23.8005C183.616 22.9485 194.078 23.8006 202.18 26.0793C223.458 31.9709 227.869 47.334 215.415 72.1687C213.926 75.1468 212.126 77.9566 210.046 80.5504C227.719 82.9282 239.531 92.1421 245.483 108.192ZM154.315 88.298C159.198 87.2706 163.631 84.7108 166.98 80.9863C168.278 79.5824 169.264 77.9165 169.875 76.0991C170.485 74.2817 170.705 72.3543 170.519 70.4448C170.294 68.6083 169.589 66.8648 168.477 65.3924C167.364 63.9199 165.884 62.7711 164.187 62.0631C159.861 60.0816 154.237 59.725 147.118 61.2903L154.315 88.298ZM190.283 144.889C192.168 143.226 193.711 141.206 194.826 138.945C195.869 136.661 195.975 134.055 195.12 131.693C193.154 126.62 188.336 123.43 181.001 122.201C177.868 121.695 174.686 121.562 171.522 121.805C168.927 121.805 166.154 122.122 163.145 122.499L170.637 150.715C170.637 150.992 172.348 150.953 175.829 150.438C177.048 150.22 178.287 150.101 179.506 149.883C180.726 149.665 181.355 149.506 181.63 149.427C184.385 148.829 186.972 147.617 189.201 145.88L190.283 144.889Z" fill="#CB7529"/>
<g opacity="0.6">
<path style="mix-blend-mode:multiply" opacity="0.6" d="M245.483 108.192C251.245 123.509 250.655 137.221 243.516 149.387C236.961 160.801 226.152 168.727 211.089 173.165C204.304 175.147 196.222 177.128 187.058 179.11L174.905 181.567L162.771 183.984H162.653L125.86 191.415L87.4541 40.0289L137.679 28.2787C148.626 26.0064 159.718 24.51 170.873 23.8005C183.616 22.9485 194.078 23.8006 202.18 26.0793C223.458 31.9709 227.869 47.334 215.415 72.1687C213.926 75.1468 212.126 77.9566 210.046 80.5504C227.719 82.9282 239.531 92.1421 245.483 108.192ZM154.315 88.298C159.198 87.2706 163.631 84.7108 166.98 80.9863C168.278 79.5824 169.264 77.9165 169.875 76.0991C170.485 74.2817 170.705 72.3543 170.519 70.4448C170.294 68.6083 169.589 66.8648 168.477 65.3924C167.364 63.9199 165.884 62.7711 164.187 62.0631C159.861 60.0816 154.237 59.725 147.118 61.2903L154.315 88.298ZM190.283 144.889C192.168 143.226 193.711 141.206 194.826 138.945C195.869 136.661 195.975 134.055 195.12 131.693C193.154 126.62 188.336 123.43 181.001 122.201C177.868 121.695 174.686 121.562 171.522 121.805C168.927 121.805 166.154 122.122 163.145 122.499L170.637 150.715C170.637 150.992 172.348 150.953 175.829 150.438C177.048 150.22 178.287 150.101 179.506 149.883C180.726 149.665 181.355 149.506 181.63 149.427C184.385 148.829 186.972 147.617 189.201 145.88L190.283 144.889Z" fill="url(#paint0_linear)"/>
</g>
<path d="M245.483 96.5002C251.245 111.817 250.655 125.529 243.516 137.695C236.961 149.109 226.152 157.035 211.089 161.473C204.304 163.455 196.222 165.436 187.058 167.418L174.905 169.875L162.752 172.253H162.634L125.86 179.723L87.4541 28.3568L137.679 16.5867C148.63 14.3405 159.721 12.8509 170.873 12.1283C183.616 11.2763 194.078 12.1283 202.18 14.4269C223.458 20.2921 227.869 35.6552 215.415 60.5163C213.921 63.4853 212.121 66.2879 210.046 68.8782C227.719 71.2428 239.531 80.4501 245.483 96.5002ZM154.315 76.6258C159.2 75.593 163.634 73.0261 166.98 69.2943C168.278 67.8904 169.264 66.2246 169.875 64.4071C170.485 62.5897 170.705 60.6623 170.519 58.7528C170.292 56.9169 169.586 55.1744 168.474 53.7023C167.362 52.2301 165.883 51.0808 164.187 50.3711C159.861 48.3896 154.237 48.0528 147.118 49.5983L154.315 76.6258ZM190.283 133.138C192.167 131.474 193.71 129.454 194.826 127.193C195.869 124.91 195.975 122.303 195.12 119.941C193.154 114.888 188.336 111.678 181.001 110.45C177.867 109.954 174.687 109.821 171.522 110.054C168.927 110.054 166.154 110.371 163.145 110.767C168.081 129.651 170.637 138.944 170.637 138.944C170.637 138.944 172.348 139.181 175.829 138.666C177.048 138.448 178.287 138.329 179.506 138.111C180.223 138.003 180.932 137.851 181.63 137.656C184.384 137.064 186.971 135.859 189.201 134.129L190.283 133.138Z" fill="#FFCE07"/>
<g style="mix-blend-mode:multiply">
<path style="mix-blend-mode:multiply" d="M245.483 96.5002C251.245 111.817 250.655 125.529 243.516 137.695C236.961 149.109 226.152 157.035 211.089 161.473C204.304 163.455 196.222 165.436 187.058 167.418L174.905 169.875L162.752 172.253H162.634L125.86 179.723L87.4541 28.3568L137.679 16.5867C148.63 14.3405 159.721 12.8509 170.873 12.1283C183.616 11.2763 194.078 12.1283 202.18 14.4269C223.458 20.2921 227.869 35.6552 215.415 60.5163C213.921 63.4853 212.121 66.2879 210.046 68.8782C227.719 71.2428 239.531 80.4501 245.483 96.5002ZM154.315 76.6258C159.2 75.593 163.634 73.0261 166.98 69.2943C168.278 67.8904 169.264 66.2246 169.875 64.4071C170.485 62.5897 170.705 60.6623 170.519 58.7528C170.292 56.9169 169.586 55.1744 168.474 53.7023C167.362 52.2301 165.883 51.0808 164.187 50.3711C159.861 48.3896 154.237 48.0528 147.118 49.5983L154.315 76.6258ZM190.283 133.138C192.167 131.474 193.71 129.454 194.826 127.193C195.869 124.91 195.975 122.303 195.12 119.941C193.154 114.888 188.336 111.678 181.001 110.45C177.867 109.954 174.687 109.821 171.522 110.054C168.927 110.054 166.154 110.371 163.145 110.767C168.081 129.651 170.637 138.944 170.637 138.944C170.637 138.944 172.348 139.181 175.829 138.666C177.048 138.448 178.287 138.329 179.506 138.111C180.223 138.003 180.932 137.851 181.63 137.656C184.384 137.064 186.971 135.859 189.201 134.129L190.283 133.138Z" fill="url(#paint1_linear)"/>
</g>
<path d="M245.921 120.427L250.03 129.421C250.057 129.479 250.097 129.53 250.147 129.57C250.196 129.61 250.254 129.637 250.315 129.651L259.812 131.259C259.881 131.273 259.945 131.306 259.996 131.355C260.048 131.404 260.086 131.467 260.106 131.536C260.126 131.606 260.127 131.68 260.109 131.75C260.091 131.82 260.055 131.883 260.005 131.934L252.961 138.741C252.919 138.787 252.887 138.842 252.867 138.901C252.847 138.961 252.84 139.025 252.846 139.087L254.331 148.952C254.343 149.024 254.334 149.097 254.307 149.164C254.28 149.231 254.235 149.288 254.178 149.33C254.12 149.372 254.053 149.396 253.982 149.4C253.912 149.404 253.842 149.387 253.781 149.352L245.321 144.567C245.265 144.536 245.204 144.519 245.14 144.518C245.077 144.516 245.015 144.531 244.959 144.561L236.329 149.025C236.266 149.058 236.195 149.072 236.125 149.065C236.055 149.058 235.989 149.032 235.933 148.988C235.877 148.944 235.834 148.885 235.809 148.817C235.785 148.749 235.779 148.676 235.793 148.605L237.602 138.839C237.614 138.776 237.61 138.712 237.592 138.651C237.575 138.59 237.543 138.534 237.5 138.489L230.712 131.422C230.663 131.369 230.63 131.303 230.615 131.231C230.6 131.16 230.605 131.085 230.629 131.016C230.653 130.947 230.694 130.886 230.749 130.84C230.805 130.794 230.871 130.764 230.941 130.755L240.527 129.467C240.589 129.456 240.648 129.431 240.699 129.393C240.75 129.355 240.791 129.306 240.821 129.249L245.257 120.415C245.29 120.353 245.338 120.302 245.398 120.266C245.457 120.231 245.524 120.212 245.593 120.214C245.661 120.215 245.728 120.236 245.786 120.273C245.844 120.311 245.89 120.364 245.921 120.427V120.427Z" fill="white"/>
<path d="M91.3567 260.201C86.1081 264.253 79.5148 266.117 72.9402 265.409C69.6274 265.068 66.4115 264.084 63.4695 262.512C60.6798 261.01 58.1918 258.998 56.1326 256.579C54.0888 254.203 52.537 251.44 51.5684 248.451C50.5781 245.402 50.2512 242.175 50.6099 238.988C50.953 235.81 51.9519 232.74 53.5424 229.974C55.1127 227.267 57.1944 224.896 59.6698 222.995C64.8471 218.932 71.4132 217.104 77.9266 217.913C83.5827 218.457 88.8886 220.917 92.977 224.892L86.7127 234.55C84.9767 233.176 82.8855 232.334 80.6879 232.124C77.86 231.747 74.997 232.489 72.7006 234.194C71.5979 234.942 70.6707 235.923 69.9836 237.07C69.2965 238.216 68.8663 239.5 68.7228 240.832C68.5794 242.163 68.7262 243.51 69.1531 244.778C69.58 246.047 70.2767 247.206 71.1944 248.175C73.0467 250.196 75.5363 251.509 78.2403 251.89C80.9444 252.272 83.6961 251.698 86.028 250.267L91.3567 260.201Z" fill="white"/>
<path d="M107.846 267.749L91.7002 262.345L115.423 215.378L142.408 260.218L130.233 268.163L126.342 260.655L110.596 260.275L107.846 267.749ZM120.865 250.146L117.066 242.845L114.487 249.87L120.865 250.146Z" fill="white"/>
<path d="M166.392 218.873L162.786 229.439C159.032 228.14 156.567 228.289 155.449 229.968C153.943 232.083 155.232 234.567 159.249 237.441C161.022 238.703 162.87 239.855 164.783 240.89L165.467 241.281L166.072 241.603C166.586 241.879 166.974 242.109 167.213 242.247C168.001 242.707 168.582 243.075 168.936 243.316C171.404 244.976 173.185 247.486 173.945 250.376C174.659 253.174 174.389 256.136 173.181 258.757C172.08 261.418 170.306 263.741 168.035 265.495C165.261 267.406 162.022 268.519 158.667 268.714C156.126 268.87 153.577 268.621 151.113 267.978C148.495 267.365 145.925 266.562 143.422 265.575L149.31 255.089C150.835 256.254 152.703 256.869 154.616 256.837C156.179 256.699 156.807 255.756 156.476 254.043C156.22 252.884 155.609 251.834 154.73 251.042C153.51 249.984 152.156 249.095 150.702 248.398L149.447 247.754L148.192 247.099C147.176 246.57 146.298 246.098 145.613 245.685C141.323 243.155 138.687 239.936 137.729 236.096C136.9 232.838 137.307 229.386 138.87 226.415C140.392 223.477 142.835 221.129 145.819 219.735C149.943 217.76 154.518 216.934 159.066 217.343C161.564 217.53 164.026 218.044 166.392 218.873V218.873Z" fill="white"/>
<path d="M176.638 265.243L176.147 219.047L192.864 219.369L191.723 265.289L176.638 265.243Z" fill="white"/>
<path d="M196.894 266.804L196.598 223.286L223.686 239.061L222.42 219.975L240.574 218.986L242.103 266.287L213.77 253.122L214.295 266.747L196.894 266.804Z" fill="white"/>
<path d="M266.12 266.84C262.819 266.605 259.599 265.706 256.649 264.195C253.922 262.782 251.508 260.827 249.552 258.447C247.575 256.024 246.139 253.201 245.342 250.17C244.544 247.138 244.404 243.97 244.93 240.879C245.452 237.601 246.645 234.468 248.433 231.681C251.123 227.426 254.908 223.986 259.385 221.728C263.862 219.47 268.864 218.479 273.856 218.861C277.154 219.112 280.367 220.031 283.304 221.563C286.046 222.963 288.471 224.92 290.424 227.312C292.348 229.671 293.756 232.414 294.555 235.36C295.391 238.454 295.55 241.694 295.022 244.857C294.497 248.13 293.313 251.26 291.542 254.055C289.778 256.844 287.533 259.294 284.913 261.287C279.565 265.454 272.854 267.437 266.12 266.84V266.84ZM260.289 242.212C260.067 243.437 260.115 244.695 260.428 245.899C260.742 247.103 261.313 248.223 262.103 249.18C262.912 250.17 263.916 250.98 265.051 251.56C266.186 252.139 267.428 252.476 268.698 252.549C271.387 252.785 274.065 251.988 276.195 250.318C277.26 249.557 278.164 248.589 278.854 247.472C279.543 246.354 280.005 245.11 280.212 243.811C280.436 242.579 280.384 241.313 280.058 240.105C279.732 238.897 279.141 237.779 278.329 236.832C277.535 235.834 276.539 235.017 275.408 234.436C274.277 233.856 273.036 233.524 271.768 233.463C269.077 233.235 266.398 234.03 264.26 235.693C262.135 237.254 260.708 239.597 260.289 242.212V242.212Z" fill="white"/>
</g>
<defs>
<linearGradient id="paint0_linear" x1="62.1648" y1="49.0447" x2="275.462" y2="170.539" gradientUnits="userSpaceOnUse">
<stop stop-color="white"/>
<stop offset="1"/>
</linearGradient>
<linearGradient id="paint1_linear" x1="164.836" y1="25.761" x2="174.279" y2="143.846" gradientUnits="userSpaceOnUse">
<stop stop-color="white"/>
<stop offset="1" stop-color="#FFCE07"/>
</linearGradient>
<clipPath id="clip0">
<rect width="304" height="276" fill="white"/>
</clipPath>
</defs>
</svg>
